<svg xmlns="http://www.w3.org/2000/svg" xmlns:xlink="http://www.w3.org/1999/xlink" viewBox="0 0 252.23 158.03"><defs><style>.cls-1{isolation:isolate;}.cls-2{fill:#ffd715;}.cls-3{fill:#ffcc01;}.cls-4{fill:#fcbd11;}.cls-5{fill:#ffdb53;}.cls-6{fill:#e69a24;}.cls-7{fill:#6d75b6;}.cls-10,.cls-8{fill:#383838;mix-blend-mode:multiply;}.cls-8,.cls-9{opacity:0.1;}.cls-11,.cls-9{fill:#fff;}.cls-10{opacity:0.2;}.cls-12{fill:#afde19;}.cls-13{fill:#575656;}.cls-14{fill:none;stroke:#fff;stroke-linecap:round;stroke-linejoin:round;stroke-width:4px;}.cls-15{fill:url(#linear-gradient);}.cls-16{fill:#c93120;}.cls-17{fill:#fdfbfc;}.cls-18{fill:#176fb7;}.cls-19{fill:#210f59;}</style><linearGradient id="linear-gradient" x1="205.64" y1="21.72" x2="231.23" y2="21.72" gradientTransform="translate(10.83 -49.61) rotate(13.28)" gradientUnits="userSpaceOnUse"><stop offset="0" stop-color="#77dcfe"/><stop offset="0.45" stop-color="#b5b7f6"/><stop offset="1" stop-color="#6ca6f0"/></linearGradient></defs><title>logo2</title><g class="cls-1"><g id="Layer_2" data-name="Layer 2"><g id="Layer_1-2" data-name="Layer 1"><circle class="cls-2" cx="146.06" cy="22.08" r="13.62"/><circle class="cls-3" cx="146.06" cy="22.08" r="11.56"/><path class="cls-4" d="M152.11,12.21a11.56,11.56,0,0,1-15.79,16.08,11.56,11.56,0,1,0,15.79-16.08Z"/><path class="cls-5" d="M136.52,23.13a10.21,10.21,0,0,1,18.3-6.22,10.21,10.21,0,1,0-16.94,11.31A10.16,10.16,0,0,1,136.52,23.13Z"/><g id="LkW7Tg.tif"><path class="cls-6" d="M144,29.53q0-.83,0-1.66c0-.16,0-.16-.16-.16h-3c-.17,0-.17,0-.17-.17q0-.62,0-1.25c0-.15,0-.16.16-.16s.44,0,.65,0a.48.48,0,0,0,.49-.49c0-.19,0-.37,0-.56q0-3,0-6c0-.17,0-.35,0-.52a.5.5,0,0,0-.48-.48,5.56,5.56,0,0,0-.69,0c-.1,0-.14,0-.14-.14,0-.44,0-.87,0-1.31,0-.11,0-.14.15-.14h3c.17,0,.17,0,.17-.17,0-.5,0-1,0-1.51,0-.12,0-.16.16-.16h1.3c.12,0,.15,0,.15.16,0,.51,0,1,0,1.53,0,.12,0,.15.15.15h.68c.16,0,.16,0,.16-.16q0-.74,0-1.49c0-.19,0-.19.2-.19H148c.18,0,.18,0,.18.18,0,.53,0,1.05,0,1.58,0,.12,0,.16.15.17a3.45,3.45,0,0,1,2,.83,2.31,2.31,0,0,1,.6.86,2.4,2.4,0,0,1-.12,2.17,2.75,2.75,0,0,1-1.22,1.12c-.15.08-.31.13-.46.22l.57.18a2.73,2.73,0,0,1,1.1.68,2.54,2.54,0,0,1,.71,1.46,2.81,2.81,0,0,1-1.11,2.69,3.92,3.92,0,0,1-2,.8c-.12,0-.16.05-.16.18,0,.59,0,1.18,0,1.77h-1.59c0-.05,0-.1,0-.15,0-.51,0-1,0-1.52,0-.12,0-.16-.16-.15h-.61c-.25,0-.22,0-.23.22q0,.8,0,1.6Zm.8-5.4h0c0,.31,0,.63,0,.94a2.8,2.8,0,0,0,0,.55.27.27,0,0,0,.28.25,11.65,11.65,0,0,0,1.26,0,4.25,4.25,0,0,0,1-.12,1.6,1.6,0,0,0,.92-2.38,1.5,1.5,0,0,0-1.07-.62,5.73,5.73,0,0,0-.77-.06c-.53,0-1.07,0-1.6,0-.06,0-.09,0-.09.09C144.78,23.23,144.77,23.68,144.77,24.13Zm0-4.47c0,.4,0,.8,0,1.2,0,.12,0,.16.16.15h.84a7.14,7.14,0,0,0,1.36-.1,1.29,1.29,0,0,0,1.17-1.1,1.17,1.17,0,0,0-.72-1.34,3.27,3.27,0,0,0-1.1-.17c-.52,0-1,0-1.56,0-.12,0-.15,0-.15.15C144.78,18.85,144.78,19.25,144.78,19.65Z"/></g><circle class="cls-7" cx="186.27" cy="14.27" r="14.26" transform="translate(19.62 98.7) rotate(-31.25)"/><circle class="cls-8" cx="186.27" cy="14.27" r="12.07" transform="translate(19.62 98.7) rotate(-31.25)"/><path class="cls-9" d="M192.52,24.6a12.07,12.07,0,0,1-17.7-6.46,12.07,12.07,0,1,0,23-7.3A12.07,12.07,0,0,1,192.52,24.6Z"/><path class="cls-10" d="M180.28,4.78A12.07,12.07,0,0,1,197.88,11a12.07,12.07,0,1,0-22.95,7.45A12.07,12.07,0,0,1,180.28,4.78Z"/><polygon class="cls-11" points="187.71 18.01 188.91 21.72 191.42 13.76 187.71 18.01"/><polygon class="cls-11" points="190.85 12.61 184.03 6.68 185.77 12.04 190.85 12.61"/><polygon class="cls-11" points="185.91 12.46 187.39 17.03 190.95 13.04 185.91 12.46"/><polygon class="cls-11" points="181.61 15.61 183.65 6.81 185.38 12.17 181.61 15.61"/><polygon class="cls-11" points="185.52 12.59 187 17.16 181.76 16.02 185.52 12.59"/><polygon class="cls-11" points="187.31 18.14 188.51 21.85 181.81 16.87 187.31 18.14"/><circle class="cls-12" cx="174.82" cy="50.28" r="12.29" transform="translate(-6.87 41.51) rotate(-13.28)"/><circle class="cls-10" cx="174.82" cy="50.28" r="10.4" transform="translate(-6.87 41.51) rotate(-13.28)"/><path class="cls-9" d="M177.2,60.4a10.4,10.4,0,0,1-12.79-10,10.4,10.4,0,1,0,20.8.13A10.4,10.4,0,0,1,177.2,60.4Z"/><path class="cls-10" d="M172.43,40.91a10.4,10.4,0,0,1,12.78,9.74,10.4,10.4,0,1,0-20.79,0A10.4,10.4,0,0,1,172.43,40.91Z"/><polygon class="cls-11" points="174.39 49.14 169.25 46.89 169.25 54.07 174.41 56.33 174.39 49.14"/><polygon class="cls-11" points="180.4 46.48 180.4 46.48 180.4 46.48 180.4 46.48"/><polygon class="cls-11" points="175.24 48.85 175.24 52.02 180.4 54.27 180.4 47.08 175.24 48.85"/><polygon class="cls-11" points="180.4 46.48 174.41 48.54 169.25 46.28 175.24 44.22 180.4 46.48"/><circle class="cls-13" cx="213.19" cy="50.28" r="12.79" transform="translate(-5.85 50.33) rotate(-13.28)"/><circle class="cls-10" cx="213.19" cy="50.28" r="10.82" transform="translate(-5.85 50.33) rotate(-13.28)"/><path class="cls-9" d="M215.66,60.82a10.82,10.82,0,0,1-13.31-10.4,10.82,10.82,0,1,0,21.64.13A10.83,10.83,0,0,1,215.66,60.82Z"/><path class="cls-10" d="M210.7,40.53A10.82,10.82,0,0,1,224,50.66a10.82,10.82,0,1,0-21.63,0A10.83,10.83,0,0,1,210.7,40.53Z"/><path class="cls-14" d="M217.68,54.44"/><path class="cls-11" d="M217.65,54h0l-1.38-6.29s0,0,0-.06a0,0,0,0,0,0,0,0,0,0,0,0,0,0l-2.85-3.9a.22.22,0,0,0-.36,0l-2.85,3.89a.23.23,0,0,0,0,.09L208.74,54s0,0,0,.07a.15.15,0,0,0,0,.09.26.26,0,0,0,.08.08l4.22,2.66a.23.23,0,0,0,.12,0h0a.26.26,0,0,0,.12,0l4.23-2.65a.2.2,0,0,0,.08-.09s0,0,0,0h0A.11.11,0,0,0,217.65,54Zm-.75-1.36L215.5,50.2l.5-1.58Zm-3.48-8.12,2.38,3.25-.59,1.88-1.78-3.15Zm-.22,2.5L215,50.26l-1.13,3.58h-1.37l-1.13-3.58Zm-.22-2.5v2l-1.78,3.14-.59-1.88Zm-2.59,4.08.5,1.58-1.39,2.46Zm.7,2.17,1,3.05h-2.69Zm-1.34,3.5h2.45l.61,1.91ZM213.19,56l-.54-1.69h1.08Zm.4.21.61-1.91h2.45Zm.75-2.36,1-3.05L217,53.84Z"/><path class="cls-14" d="M216.54,47.06"/><path class="cls-14" d="M212.7,57"/><path class="cls-14" d="M218.15,54.44"/><path class="cls-14" d="M216.54,47.06"/><path class="cls-14" d="M209.85,47.06"/><path class="cls-14" d="M208.24,54.44"/><path class="cls-14" d="M212.69,57"/><path class="cls-14" d="M209.85,47.06"/><path class="cls-14" d="M215.28,47.62"/><path class="cls-14" d="M212.3,57"/><path class="cls-14" d="M216.73,54.23"/><path class="cls-14" d="M215.28,47.62"/><path class="cls-14" d="M209.3,47.62"/><path class="cls-14" d="M212.29,57"/><path class="cls-14" d="M209.3,47.62"/><circle class="cls-15" cx="218.43" cy="21.72" r="12.79" transform="translate(0.85 50.77) rotate(-13.28)"/><path class="cls-9" d="M220.91,32.26A10.82,10.82,0,0,1,207.6,21.86a10.83,10.83,0,1,0,21.65.13A10.83,10.83,0,0,1,220.91,32.26Z"/><path class="cls-10" d="M215.95,12a10.83,10.83,0,0,1,13.31,10.14,10.83,10.83,0,1,0-21.64,0A10.83,10.83,0,0,1,215.95,12Z"/><circle class="cls-10" cx="218.42" cy="22.12" r="10.83" transform="translate(0.76 50.77) rotate(-13.28)"/><path class="cls-11" d="M225.67,23.87A1.72,1.72,0,0,0,224,22c-1.88-.18-2.2,2-2.2,2-.31,2.44-.49,2.39-.49,2.39a6.87,6.87,0,0,1-1,0,5.24,5.24,0,0,1-4.72-2.59,3.39,3.39,0,0,1,5.49-3.93C221.73,21,222.5,21,222.5,21c2.84.15,2.39-2.33,2.39-2.33a6.75,6.75,0,0,0-3.73-3.41,7.39,7.39,0,0,0-10,6.42,6.79,6.79,0,0,0,1.53,5,7.56,7.56,0,0,0,4.53,2.74,4.81,4.81,0,0,0,4.87-1.92C225.86,26.47,225.67,23.87,225.67,23.87Zm-9.38,4a6.26,6.26,0,0,1-3.74-4.16,6.19,6.19,0,0,1,1.2-5.53,6.3,6.3,0,0,1,6-2.13,6,6,0,0,1,4,2.77s.09,1.23-1.24.83A4.74,4.74,0,0,0,218,17.53,4.61,4.61,0,0,0,214,21.7a4.94,4.94,0,0,0,2.17,4.56,6.52,6.52,0,0,0,4.16,1.35A4.24,4.24,0,0,1,216.29,27.87Zm8.15-3.69a3.12,3.12,0,0,1-1.64,1.74s0-2.71.94-2.75C223.74,23.17,224.78,23.08,224.44,24.18Z"/><circle class="cls-16" cx="132.42" cy="51.64" r="11.52" transform="translate(-5.25 87) rotate(-35.71)"/><circle class="cls-10" cx="132.42" cy="51.64" r="9.74" transform="translate(-5.25 87) rotate(-35.71)"/><path class="cls-9" d="M138.1,59.57a9.74,9.74,0,0,1-14.65-4.09,9.75,9.75,0,1,0,18.06-7.32A9.75,9.75,0,0,1,138.1,59.57Z"/><path class="cls-10" d="M127,44.39a9.75,9.75,0,0,1,14.55,3.87,9.74,9.74,0,1,0-18,7.44A9.75,9.75,0,0,1,127,44.39Z"/><path class="cls-17" d="M137.23,47.06l-2-.45h0a.76.76,0,0,0-.25,0h0l-4.6.71-4.1.63h-.11a1,1,0,0,0-.4.11.29.29,0,0,0-.09.08l0,0a.46.46,0,0,0,0,.2v0l.05.13v0l5.09,5.61,3.92,4.32a.33.33,0,0,0,.36.09h0a.35.35,0,0,0,.22-.28l.91-4.26.66-3.11.27-1.28c.15-.7.3-1.42.46-2.13v-.07a.47.47,0,0,0-.33-.35m-2.17,2.31-1.28,1.52.54-1.43.68-1.82h0a1.43,1.43,0,0,1,.07-.19l.06-.14.82.18.59.13-1.48,1.75m-1.43.43-.7,1.87-3.7-2-1.66-.87h0l-.37-.2-.24-.13,1.1-.17,1-.15,5.51-.85-.92,2.46m.87,6.2c-.09-.32-.19-.64-.28-1l-.23-.77c-.12-.4-.24-.81-.36-1.22l0-.07c-.07-.26-.15-.53-.24-.79l.08-.09.1-.12,1.57-1.86,1.59-1.89c-.25,1.15-.49,2.3-.73,3.43-.2,1-.41,2-.63,2.93l-.25,1.17c-.09.43-.19.87-.28,1.31-.11-.36-.22-.72-.33-1.07M127,49.28l-.24-.26,3.47,1.84,1.77.94.34.18.45.23c.09.31.18.62.27.92l.19.63h0c0,.13.08.27.12.4l.17.6v0c.19.6.37,1.22.54,1.81l.22.75-.1-.11-.27-.3-.66-.73L127,49.28"/><path class="cls-18" d="M11.77,79H157.26s7-1.45,7.63,7.47c0,0,1,10-5.39,10.58H57s-4.56,1-3.73,9.75c0,0,0,5.81,5.39,6.64h99.59s6.76.83,6.7,9.13c0,0,.23,8.51-7.69,8.51H79.82s-3.53,2.9-2.9,10.58c0,0,.83,4.77,4.15,5.81h27.8s1.14,9.34,9.08,10.58H241.18s5.45-.16,5.6-6.22V126.45l-34.7-.31s-10.2,1.82-11-21c0,0-.75-15.56,10.7-18.84L246,86.15l.78-19.76s-.16-6.38-6.07-6.69H120.49s-6.85-1.87-6.22-13.07c0,0,.21-9.75,12-9.54H233.14s6.22,0,7.26,9.75l-.21,6,6.59-.21V40.4s.26-9.54-10.74-10H118.62s-9.75.21-10,9.54L108,63.22,12.45,63s-5.29.16-5,8.09C7.47,71.05,6.9,78.21,11.77,79Z"/><rect class="cls-19" x="207.42" y="91.59" width="44.81" height="31.12" rx="8.51" ry="8.51"/><circle class="cls-11" cx="229.83" cy="107.15" r="4.72"/><circle class="cls-11" cx="11.97" cy="70.46" r="9.48"/><path class="cls-18" d="M12,82.43a12,12,0,1,1,12-12A12,12,0,0,1,12,82.43Zm0-19a7,7,0,1,0,7,7A7,7,0,0,0,12,63.47Z"/><circle class="cls-11" cx="50.25" cy="104.73" r="9.48"/><path class="cls-18" d="M50.25,116.69a12,12,0,1,1,12-12A12,12,0,0,1,50.25,116.69Zm0-19a7,7,0,1,0,7,7A7,7,0,0,0,50.25,97.74Z"/><circle class="cls-11" cx="72.74" cy="138.23" r="9.48"/><path class="cls-18" d="M72.74,150.2a12,12,0,1,1,12-12A12,12,0,0,1,72.74,150.2Zm0-19a7,7,0,1,0,7,7A7,7,0,0,0,72.74,131.24Z"/></g></g></g></svg>